<mxfile host="app.diagrams.net" modified="2024-07-05T15:30:28.339Z" agent="Mozilla/5.0 (Macintosh; Intel Mac OS X 10_15_7) AppleWebKit/537.36 (KHTML, like Gecko) Chrome/126.0.0.0 Safari/537.36" version="24.6.4" etag="YYdfTEr_aGzBBVVLoPmQ" type="github">
  <diagram name="PÃ¡gina-1" id="Yr3rfov572FWFdwWafOJ">
    <mxGraphModel>
      <root>
        <mxCell id="0" />
        <mxCell id="1" parent="0" />
      </root>
    </mxGraphModel>
  </diagram>
</mxfile>
